# Blender v2.82 (sub 7) OBJ File: ''
# www.blender.org
mtllib IntroBuilding.mtl
o Plane
v -1.000000 0.000000 1.000000
v 1.000000 0.000000 1.000000
v -1.000000 0.000000 -1.000000
v 1.000000 0.000000 -1.000000
v -1.000000 0.000000 -0.183575
v 1.000000 0.000000 -0.183575
v 0.137818 0.000000 1.000000
v 0.137818 0.000000 -1.000000
v -1.000000 0.000000 0.187260
v 1.000000 0.000000 0.187260
v -0.139119 0.000000 -1.000000
v -0.139119 0.000000 1.000000
v -1.000000 0.000000 2.995318
v 1.000000 0.000000 2.995318
v -1.000000 0.000000 -3.004883
v 1.000000 0.000000 -3.004883
v 2.984293 0.000000 1.000000
v 2.984293 0.000000 -1.000000
v 2.984293 0.000000 2.995318
v 2.984293 0.000000 -3.004883
v -3.005802 0.000000 1.000000
v -3.005802 0.000000 -1.000000
v -3.005802 0.000000 2.995318
v -3.005802 0.000000 -3.004883
v -1.000000 0.348655 1.000000
v 1.000000 0.348655 1.000000
v -1.000000 0.348655 -1.000000
v 1.000000 0.348655 -1.000000
v -1.000000 0.348655 -0.183575
v 1.000000 0.348655 -0.183575
v 0.137818 0.348655 1.000000
v 0.137818 0.348655 -1.000000
v -1.000000 0.348655 0.187260
v 1.000000 0.348655 0.187260
v -0.139119 0.348655 -1.000000
v -0.139119 0.348655 1.000000
v -1.000000 0.341275 1.000000
v 1.000000 0.341275 1.000000
v -1.000000 0.341275 -1.000000
v 1.000000 0.341275 -1.000000
v -1.000000 0.341275 2.995318
v 1.000000 0.341275 2.995318
v -1.000000 0.341275 -3.004883
v 1.000000 0.341275 -3.004883
v 2.984293 0.341275 1.000000
v 2.984293 0.341275 -1.000000
v -3.005802 0.341275 1.000000
v -3.005802 0.341275 -1.000000
v -1.000000 0.341822 2.995318
v 1.000000 0.341822 2.995318
v -1.000000 0.341822 -3.004883
v 1.000000 0.341822 -3.004883
v 2.984293 0.341822 1.000000
v 2.984293 0.341822 -1.000000
v 2.984293 0.341822 2.995318
v 2.984293 0.341822 -3.004883
v -3.005802 0.341822 1.000000
v -3.005802 0.341822 -1.000000
v -3.005802 0.341822 2.995318
v -3.005802 0.341822 -3.004883
vt 0.115659 0.448098
vt 0.143869 0.448098
vt 0.231563 0.448098
vt 0.231563 0.651352
vt 0.027832 0.651352
vt 0.027832 0.448098
vt 0.437074 0.038476
vt 0.437074 0.126170
vt 0.437074 0.154380
vt 0.437074 0.242207
vt 0.232845 0.242207
vt 0.232845 0.038476
vt 0.438045 0.243582
vt 0.641299 0.243582
vt 0.641299 0.445713
vt 0.438045 0.445713
vt 0.437858 0.159041
vt 0.437858 0.121266
vt 0.437858 0.038476
vt 0.639989 0.038476
vt 0.639989 0.242207
vt 0.437858 0.242207
vt 0.437454 0.447621
vt 0.641683 0.447621
vt 0.641683 0.649752
vt 0.437454 0.649752
vt 0.232154 0.243582
vt 0.232154 0.326373
vt 0.232154 0.364148
vt 0.232154 0.447314
vt 0.027832 0.447314
vt 0.027832 0.243583
vt 0.437261 0.243582
vt 0.437261 0.446837
vt 0.232939 0.446837
vt 0.232939 0.243582
vt 0.232060 0.242798
vt 0.027832 0.242798
vt 0.027832 0.038476
vt 0.232060 0.038476
vt 0.262354 0.853299
vt 0.262354 0.936089
vt 0.226838 0.936089
vt 0.226838 0.853299
vt 0.677241 0.948290
vt 0.677241 0.860463
vt 0.712757 0.860463
vt 0.712757 0.948290
vt 0.125076 0.825756
vt 0.125076 0.790240
vt 0.037381 0.790240
vt 0.037381 0.825756
vt 0.205559 0.854876
vt 0.205559 0.938041
vt 0.170043 0.938041
vt 0.170043 0.854876
vt 0.677241 0.777297
vt 0.712757 0.777297
vt 0.310433 0.934513
vt 0.345948 0.934513
vt 0.345948 0.851723
vt 0.310433 0.851723
vt 0.147188 0.853299
vt 0.147188 0.940993
vt 0.111672 0.940993
vt 0.111672 0.853299
vt 0.785316 0.818285
vt 0.785316 0.906112
vt 0.749800 0.906112
vt 0.749800 0.818285
vt 0.316104 0.447621
vt 0.353880 0.447621
vt 0.436670 0.447621
vt 0.436670 0.535315
vt 0.436670 0.563526
vt 0.436670 0.651352
vt 0.353879 0.651352
vt 0.316104 0.651352
vt 0.232939 0.651352
vt 0.232939 0.563526
vt 0.232939 0.535315
vt 0.232939 0.447621
vt 0.768022 0.473664
vt 0.802786 0.473664
vt 0.802786 0.270411
vt 0.768022 0.270411
vt 0.833544 0.035351
vt 0.798780 0.035351
vt 0.798780 0.239673
vt 0.833544 0.239673
vt 0.914811 0.036927
vt 0.880047 0.036927
vt 0.880046 0.241156
vt 0.914811 0.241156
vt 0.884053 0.265681
vt 0.849288 0.265681
vt 0.849288 0.468935
vt 0.884053 0.468935
vt 0.907830 0.961496
vt 0.942594 0.961496
vt 0.942594 0.759365
vt 0.907830 0.759365
vt 0.810743 0.959920
vt 0.810743 0.757789
vt 0.845507 0.757789
vt 0.845507 0.959920
vt 0.727033 0.710301
vt 0.761798 0.710301
vt 0.761798 0.505979
vt 0.727034 0.505979
vt 0.775194 0.705478
vt 0.809958 0.705478
vt 0.809958 0.501249
vt 0.775194 0.501249
vt 0.964603 0.265090
vt 0.964603 0.468821
vt 0.929784 0.468821
vt 0.929784 0.265090
vt 0.953685 0.504402
vt 0.953685 0.708133
vt 0.918865 0.708133
vt 0.918865 0.504402
vt 0.384277 0.702612
vt 0.586408 0.702612
vt 0.586408 0.737432
vt 0.384277 0.737432
vt 0.945548 0.239082
vt 0.945548 0.035351
vt 0.980368 0.035351
vt 0.980368 0.239082
vt 0.442275 0.781412
vt 0.645529 0.781412
vt 0.645529 0.816232
vt 0.442275 0.816232
vt 0.718367 0.276716
vt 0.718367 0.479971
vt 0.683547 0.479971
vt 0.683547 0.276716
vt 0.054723 0.702612
vt 0.258951 0.702612
vt 0.258951 0.737432
vt 0.054723 0.737432
vt 0.760160 0.040080
vt 0.760160 0.244309
vt 0.725340 0.244309
vt 0.725340 0.040080
vt 0.437545 0.878499
vt 0.639676 0.878499
vt 0.639676 0.913319
vt 0.437545 0.913319
vt 0.712061 0.498096
vt 0.712061 0.702418
vt 0.677241 0.702418
vt 0.677241 0.498096
vt 0.662935 0.244402
vt 0.662935 0.040080
vt 0.697755 0.040080
vt 0.697755 0.244402
vt 0.826508 0.706557
vt 0.826508 0.502826
vt 0.861328 0.502826
vt 0.861328 0.706557
vn 0.0000 1.0000 0.0000
vn -1.0000 0.0000 0.0000
vn 0.0000 0.0000 1.0000
vn 0.0000 0.0000 -1.0000
vn 1.0000 0.0000 0.0000
usemtl None
s off
f 7/1/1 12/2/1 1/3/1 13/4/1 14/5/1 2/6/1
f 3/7/1 11/8/1 8/9/1 4/10/1 16/11/1 15/12/1
f 2/13/1 14/14/1 19/15/1 17/16/1
f 6/17/1 10/18/1 2/19/1 17/20/1 18/21/1 4/22/1
f 16/23/1 4/24/1 18/25/1 20/26/1
f 1/27/1 9/28/1 5/29/1 3/30/1 22/31/1 21/32/1
f 13/33/1 1/34/1 21/35/1 23/36/1
f 3/37/1 15/38/1 24/39/1 22/40/1
f 10/41/2 2/42/2 26/43/2 34/44/2
f 8/45/3 4/46/3 28/47/3 32/48/3
f 1/49/4 25/50/4 36/51/4 12/52/4
f 5/53/5 3/54/5 27/55/5 29/56/5
f 4/46/2 6/57/2 30/58/2 28/47/2
f 9/59/5 33/60/5 25/61/5 1/62/5
f 3/63/3 11/64/3 35/65/3 27/66/3
f 2/67/4 7/68/4 31/69/4 26/70/4
f 5/71/1 9/72/1 1/73/1 12/74/1 7/75/1 2/76/1 10/77/1 6/78/1 4/79/1 8/80/1 11/81/1 3/82/1
f 1/83/5 37/84/5 41/85/5 13/86/5
f 21/87/4 47/88/4 37/89/4 1/90/4
f 4/91/2 40/92/2 44/93/2 16/94/2
f 14/95/2 42/96/2 38/97/2 2/98/2
f 18/99/3 46/100/3 40/101/3 4/102/3
f 17/103/4 2/104/4 38/105/4 45/106/4
f 3/107/3 39/108/3 48/109/3 22/110/3
f 15/111/5 43/112/5 39/113/5 3/114/5
f 21/115/5 22/116/5 58/117/5 57/118/5
f 15/119/3 16/120/3 52/121/3 51/122/3
f 19/123/4 14/124/4 50/125/4 55/126/4
f 14/127/4 13/128/4 49/129/4 50/130/4
f 17/131/2 19/132/2 55/133/2 53/134/2
f 23/135/5 21/136/5 57/137/5 59/138/5
f 20/139/2 18/140/2 54/141/2 56/142/2
f 22/143/5 24/144/5 60/145/5 58/146/5
f 16/147/3 20/148/3 56/149/3 52/150/3
f 24/151/3 15/152/3 51/153/3 60/154/3
f 13/155/4 23/156/4 59/157/4 49/158/4
f 18/159/2 17/160/2 53/161/2 54/162/2
